<svg width="18" height="13" viewBox="0 0 18 13" fill="none" xmlns="http://www.w3.org/2000/svg">
<path d="M17.7851 1.67392L6.7851 12.6739C6.72125 12.7378 6.64542 12.7886 6.56196 12.8232C6.4785 12.8577 6.38904 12.8756 6.29869 12.8756C6.20834 12.8756 6.11888 12.8577 6.03542 12.8232C5.95196 12.7886 5.87614 12.7378 5.81229 12.6739L0.999785 7.86142C0.870782 7.73242 0.798309 7.55745 0.798309 7.37502C0.798309 7.19258 0.870782 7.01761 0.999785 6.88861C1.12879 6.75961 1.30375 6.68713 1.48619 6.68713C1.66863 6.68713 1.84359 6.75961 1.9726 6.88861L6.29869 11.2156L16.8123 0.701109C16.9413 0.572107 17.1163 0.499634 17.2987 0.499634C17.4811 0.499634 17.6561 0.572107 17.7851 0.701109C17.9141 0.830112 17.9866 1.00508 17.9866 1.18752C17.9866 1.36995 17.9141 1.54492 17.7851 1.67392Z" fill="#9E78CF"/>
</svg>
